<?xml version="1.0" encoding="UTF-8"?>
<svg id="Layer_1" xmlns="http://www.w3.org/2000/svg" version="1.1" viewBox="0 0 128 128">
  <!-- Generator: Adobe Illustrator 29.3.1, SVG Export Plug-In . SVG Version: 2.1.0 Build 151)  -->
  <defs>
    <style>
      .st0 {
        fill: #231f20;
      }

      .st1 {
        fill: #f3f3f3;
      }

      .st2 {
        fill: #3571a0;
      }

      .st3 {
        fill: #2f8445;
      }
    </style>
  </defs>
  <g>
    <path class="st1" d="M102.3,8.7c5.6.4,10.6,3.7,10.4,8.2s.2,93.1.2,93.1c-.9,4.8-5.7,8.8-10.8,9.3H19.6c-5.1-.5-9.9-4.6-10.8-9.3l-.3-91.6c.6-5.2,4.8-8.7,10.1-9.5l83.8-.2M102.5,4.7h-.2s-83.8.2-83.8.2h-.3s-.3,0-.3,0c-7.4,1.1-12.8,6.2-13.5,12.9v.2s0,.2,0,.2l.3,91.6v.4s0,.3,0,.3c1.3,6.4,7.5,11.8,14.5,12.5h.2s.2,0,.2,0h83c7-.8,13.2-6.2,14.5-12.6v-.4c0,0,0-.4,0-.4-.1-30.6-.4-89.5-.2-93,.3-6.4-5.8-11.6-14.3-12.3h-.2Z"/>
    <path class="st0" d="M18.9,37.6l.4,70.9c0,.5,1.2,1.2,1.5,1.3h79.5l2.1-1.3-.2-71-83.3.2ZM32.5,61.5c2.3-1.5,11-11.1,12.7-11.5,2.2-.5,4.2,1.1,3.3,3.3-.7,1.7-10.2,9-10.3,9.9l9.8,9.5c1.2,2.5-1.3,4.5-3.8,3-.8-.5-11.2-9.9-11.8-10.8-.4-.5-.6-1-.6-1.6l.7-1.9ZM53.1,102.8c-.5.3-1,.4-1.5.5-3.6.5-18.8.5-22.4,0-3.3-.5-4-4.4-.6-5,2.7-.5,20.6-.5,23.4,0,2.5.4,3.4,3.2,1.1,4.6ZM60.9,91.8c-9.4,1.3-22.1-1-31.9,0-2.9-.6-3.7-3.6-.8-4.8l33.7.2c2.4,1.4,1.9,4.3-1,4.7ZM58.1,75.9c-1.7,3-5.8,2.1-4.7-2.2,2.2-9,7.3-18.5,9.8-27.5.3-.9,1.3-1.5,2.3-1.6,1.4,0,2.4.9,2.7,2.1l-10.1,29.3ZM89.5,64.6c-.7,1-11.3,10.7-12.1,11-1.5.6-3.1,0-3.6-1.5-.1-.5-.1-.9,0-1.4.3-1.1,5.1-5,6.2-6.1,1.3-1.3,2.6-2.7,4-3.9l-10.3-9.8c-.8-1.6,0-3,1.8-3.6,1.1-.2,1.7.3,2.5.8,1.2.8,10.8,9.8,11.5,10.8,1,1.4,1,2.1,0,3.5Z"/>
    <path class="st2" d="M112.8,16.8c.2-4.5-4.8-7.8-10.4-8.2l-83.8.2c-5.3.8-9.4,4.3-10.1,9.5l.3,91.6c.9,4.8,5.7,8.8,10.8,9.3h82.5c5.1-.5,9.9-4.6,10.8-9.3,0,0-.4-88.6-.2-93.1ZM52.1,17.2c2.5,0,4.5,1.9,4.5,4.3s-2,4.3-4.5,4.3-4.5-1.9-4.5-4.3,2-4.3,4.5-4.3ZM37.3,17.2c2.5,0,4.5,1.9,4.5,4.2s-2,4.2-4.5,4.2-4.5-1.9-4.5-4.2,2-4.2,4.5-4.2ZM22.6,17.1c2.5,0,4.5,1.9,4.5,4.2s-2,4.2-4.5,4.2-4.5-1.9-4.5-4.2,2-4.2,4.5-4.2ZM107.2,108.9c-.5,4.1-3.4,5.3-7.4,5.6-14.4,1.1-45,0-45,0H21.9c-3.9-.3-6.9-1.5-7.4-5.6l-.3-72.8c.4-1.8,1.6-2.8,3.5-3.2h86c1.4.2,3,1.7,3.2,3.1l.2,17.5v55.4Z"/>
    <ellipse class="st1" cx="52.1" cy="21.4" rx="4.5" ry="4.3"/>
    <ellipse class="st1" cx="37.3" cy="21.4" rx="4.5" ry="4.2"/>
    <ellipse class="st1" cx="22.6" cy="21.3" rx="4.5" ry="4.2"/>
    <path class="st1" d="M107,36c-.2-1.3-1.8-2.8-3.2-3H17.8c-1.9.3-3.1,1.4-3.5,3.1l.3,72.8c.5,4.1,3.4,5.3,7.4,5.6h33s30.6,1.1,45,0c3.9-.3,6.9-1.5,7.4-5.6v-55.4l-.2-17.5ZM100.4,109.7H20.9c-.4,0-1.5-.8-1.5-1.3l-.4-70.9,83.3-.2.2,71-2.1,1.3Z"/>
  </g>
  <g>
    <g>
      <path class="st3" d="M104.5,86.3c.9.4,1.9.9,2.9,1.2l.2.3c-1.1,7.6-1,15.2-.1,22.8.3,2.6,1.7,7.6,1.6,9.7s-.6,1.6-1.4,2.1c-4.6.9-9.3-1.1-13.7-2,2-6.2,4.1-12.3,4.4-18.9-2.9,5.8-4.8,12.4-8.8,17.5-.8.3-6.2-2.1-7.3-2.6-3.1-1.5-6.2-3.2-8.9-5.4v-.3c4.5-4.6,8.7-9.8,11.3-15.7l-14.2,13.8c-1.7-1.4-6.7-5.2-7.1-7.3s2-2.4,3.6-3.2,4.2-3,6-4.4c5.5-4.4,10.2-9.5,15.3-14.2,5.2,2.6,10.8,4.4,16.2,6.7Z"/>
      <path class="st3" d="M122.5,39.5l-16.4,32.1c2.7,1.8,5.8,3.1,5,7.1-.1.5-2.3,5.5-2.6,5.7l-19.1-6.9c.7-1.8,2.2-7.2,3.7-8.2s2.1-.3,2.9-.7l3.9,1.1,15.9-36.7c4.7-3.9,10.7,1.2,6.7,6.5Z"/>
    </g>
    <path class="st1" d="M125.4,33c-1.1-2.3-3.5-3.7-6.1-3.7h0c-1.8,0-3.5.7-5,1.9-.3.2-.5.5-.6.8l-15.1,34.9-2-.6c-.2,0-.4,0-.6,0-.3,0-.7,0-1,.2,0,0-.3,0-.4,0-.7,0-1.8.1-2.8.8-1.7,1.1-2.7,3.9-4,7.7-.2.6-.4,1.2-.5,1.6-.1.4-.2.8-.1,1.1-.1,0-.2.2-.3.3-1.7,1.6-3.5,3.3-5.1,4.9-3.2,3.1-6.6,6.4-10.1,9.2-.4.3-.8.6-1.2,1-1.4,1.2-3,2.5-4.4,3.2-.2.1-.6.2-1,.3-.9.3-1.8.5-2.6,1.3-.6.6-1.7,1.9-1.1,4.1.5,2.1,2.8,4.4,7,7.7.4.3.7.6.9.8.4.4,1,.5,1.5.5s.4,0,.7,0c0,.7.3,1.4.9,1.9,2.6,2.1,5.8,4,9.3,5.7,1.4.7,6.3,2.8,8.1,2.8s.6,0,.8-.1c.4-.1.8-.4,1.1-.8.1-.1.2-.3.3-.4-.1.5,0,1.1.3,1.6.3.6.9,1,1.5,1.1,1.1.2,2.2.5,3.3.8,2.7.7,5.6,1.5,8.5,1.5s1.9,0,2.8-.3c.3,0,.6-.2.9-.4,1.5-1.1,2.3-2.4,2.3-3.9,0-1.5-.4-3.7-.9-6-.3-1.5-.6-3-.7-4-.9-8-.9-15.3.1-22.2,0-.6,0-1.1-.4-1.6v-.2c0,0,.2-.1.3-.2.5-.4.8-.6,2.1-3.7,1.3-2.8,1.4-3.3,1.4-3.5.9-4.5-1.9-6.8-4.3-8.3l15.3-30.1c1.8-2.5,2.1-5.3.9-7.7ZM109.1,120.3c0,.9-.6,1.6-1.4,2.1-.8.1-1.6.2-2.4.2-3.8,0-7.6-1.5-11.3-2.3,2-6.2,4.1-12.3,4.4-18.9-2.9,5.8-4.8,12.4-8.8,17.5,0,0,0,0-.2,0-1.2,0-6.1-2.1-7.1-2.6-3.1-1.5-6.2-3.2-8.9-5.4v-.3c4.5-4.6,8.7-9.8,11.3-15.7l-14.2,13.8c-1.7-1.4-6.7-5.2-7.1-7.3-.6-2.6,2-2.4,3.6-3.2,2-1,4.2-3,6-4.4,5.5-4.4,10.2-9.5,15.3-14.2,5.2,2.6,10.8,4.4,16.2,6.7.9.4,1.9.9,2.9,1.2l.2.3c-1.1,7.6-1,15.2-.1,22.8.3,2.6,1.7,7.6,1.6,9.7ZM122.5,39.5l-16.4,32.1c2.7,1.8,5.8,3.1,5,7.1-.1.5-2.3,5.5-2.6,5.7l-19.1-6.9c.7-1.8,2.2-7.2,3.7-8.2.9-.6,2.1-.3,2.9-.7l3.9,1.1,15.9-36.7c1.2-1,2.4-1.4,3.5-1.4,3.5,0,6.2,3.9,3.2,7.9Z"/>
  </g>
  <path class="st1" d="M32.5,61.5c2.3-1.5,11-11.1,12.7-11.5,2.2-.5,4.2,1.1,3.3,3.3-.7,1.7-10.2,9-10.3,9.9l9.8,9.5c1.2,2.5-1.3,4.5-3.8,3-.8-.5-11.2-9.9-11.8-10.8-.4-.5-.6-1-.6-1.6l.7-1.9Z"/>
  <path class="st1" d="M53.1,102.8c-.5.3-1,.4-1.5.5-3.6.5-18.8.5-22.4,0-3.3-.5-4-4.4-.6-5,2.7-.5,20.6-.5,23.4,0,2.5.4,3.4,3.2,1.1,4.6Z"/>
  <path class="st1" d="M60.9,91.8c-9.4,1.3-22.1-1-31.9,0-2.9-.6-3.7-3.6-.8-4.8l33.7.2c2.4,1.4,1.9,4.3-1,4.7Z"/>
  <path class="st1" d="M58.1,75.9c-1.7,3-5.8,2.1-4.7-2.2,2.2-9,7.3-18.5,9.8-27.5.3-.9,1.3-1.5,2.3-1.6,1.4,0,2.4.9,2.7,2.1l-10.1,29.3Z"/>
  <path class="st1" d="M89.5,64.6c-.7,1-11.3,10.7-12.1,11-1.5.6-3.1,0-3.6-1.5-.1-.5-.1-.9,0-1.4.3-1.1,5.1-5,6.2-6.1,1.3-1.3,2.6-2.7,4-3.9l-10.3-9.8c-.8-1.6,0-3,1.8-3.6,1.1-.2,1.7.3,2.5.8,1.2.8,10.8,9.8,11.5,10.8,1,1.4,1,2.1,0,3.5Z"/>
</svg>